<svg width="16" height="14" viewBox="0 0 16 14" fill="none" xmlns="http://www.w3.org/2000/svg">
  <path fill-rule="evenodd" clip-rule="evenodd"
        d="M7.25 12.25C6.836 12.25 6.5 11.914 6.5 11.5C6.5 11.086 6.836 10.75 7.25 10.75C7.664 10.75 8 11.086 8 11.5C8 11.914 7.664 12.25 7.25 12.25ZM14.75 10.75H9.36125C9.05075 9.87925 8.2265 9.25 7.25 9.25C6.2735 9.25 5.44925 9.87925 5.13875 10.75H1.25C0.83525 10.75 0.5 11.0852 0.5 11.5C0.5 11.9148 0.83525 12.25 1.25 12.25H5.13875C5.44925 13.1208 6.2735 13.75 7.25 13.75C8.2265 13.75 9.05075 13.1208 9.36125 12.25H14.75C15.1648 12.25 15.5 11.9148 15.5 11.5C15.5 11.0852 15.1648 10.75 14.75 10.75ZM13.25 7.75C12.836 7.75 12.5 7.414 12.5 7C12.5 6.586 12.836 6.25 13.25 6.25C13.664 6.25 14 6.586 14 7C14 7.414 13.664 7.75 13.25 7.75ZM13.25 4.75C12.2735 4.75 11.4493 5.37925 11.1388 6.25H1.25C0.83525 6.25 0.5 6.58525 0.5 7C0.5 7.41475 0.83525 7.75 1.25 7.75H11.1388C11.4493 8.62075 12.2735 9.25 13.25 9.25C14.4905 9.25 15.5 8.2405 15.5 7C15.5 5.7595 14.4905 4.75 13.25 4.75ZM4.25 1.75C4.664 1.75 5 2.086 5 2.5C5 2.914 4.664 3.25 4.25 3.25C3.836 3.25 3.5 2.914 3.5 2.5C3.5 2.086 3.836 1.75 4.25 1.75ZM1.25 3.25H2.13875C2.44925 4.12075 3.2735 4.75 4.25 4.75C5.2265 4.75 6.05075 4.12075 6.36125 3.25H14.75C15.1648 3.25 15.5 2.91475 15.5 2.5C15.5 2.08525 15.1648 1.75 14.75 1.75H6.36125C6.05075 0.87925 5.2265 0.25 4.25 0.25C3.2735 0.25 2.44925 0.87925 2.13875 1.75H1.25C0.83525 1.75 0.5 2.08525 0.5 2.5C0.5 2.91475 0.83525 3.25 1.25 3.25Z"
        fill="#333333"/>
</svg>
